<svg xmlns="http://www.w3.org/2000/svg" xmlns:xlink="http://www.w3.org/1999/xlink" width="144" zoomAndPan="magnify" viewBox="0 0 108 107.999999" height="144" preserveAspectRatio="xMidYMid meet" version="1.0"><defs><filter x="0%" y="0%" width="100%" height="100%" id="244ed2561d"><feColorMatrix values="0 0 0 0 1 0 0 0 0 1 0 0 0 0 1 0 0 0 1 0" color-interpolation-filters="sRGB"/></filter><clipPath id="51dd7e0f1e"><path d="M 11 58 L 97 58 L 97 84.621094 L 11 84.621094 Z M 11 58 " clip-rule="nonzero"/></clipPath><clipPath id="3b92e5f2da"><path d="M 11.695312 67 L 96.429688 67 L 96.429688 84.621094 L 11.695312 84.621094 Z M 11.695312 67 " clip-rule="nonzero"/></clipPath><clipPath id="05daf8ec8a"><path d="M 83.835938 61.644531 C 86.515625 62.152344 89.238281 62.722656 91.613281 64.183594 C 93.988281 65.640625 95.992188 68.160156 96.28125 71.15625 C 96.570312 74.132812 95.101562 77.082031 93.015625 78.996094 C 90.929688 80.910156 88.296875 81.933594 85.667969 82.65625 C 77.636719 84.859375 69.25 84.585938 60.984375 84.300781 C 50.058594 83.921875 39.125 83.539062 28.222656 82.636719 C 24.8125 82.355469 21.335938 82 18.214844 80.460938 C 15.09375 78.921875 11.726562 76.027344 11.761719 72.238281 C 11.921875 55.023438 61.082031 57.335938 83.835938 61.644531 Z M 83.835938 61.644531 " clip-rule="nonzero"/></clipPath><clipPath id="e7cf3819a2"><path d="M 11.695312 56 L 96.429688 56 L 96.429688 73.753906 L 11.695312 73.753906 Z M 11.695312 56 " clip-rule="nonzero"/></clipPath><clipPath id="5bd227bcab"><path d="M 83.792969 50.679688 C 86.472656 51.1875 89.199219 51.757812 91.574219 53.21875 C 93.945312 54.675781 95.949219 57.199219 96.238281 60.191406 C 96.527344 63.167969 95.058594 66.117188 92.972656 68.03125 C 90.886719 69.945312 88.253906 70.96875 85.628906 71.691406 C 77.597656 73.898438 69.210938 73.625 60.945312 73.335938 C 50.015625 72.957031 39.085938 72.574219 28.183594 71.671875 C 24.773438 71.390625 21.296875 71.035156 18.175781 69.496094 C 15.054688 67.957031 11.683594 65.0625 11.71875 61.273438 C 11.878906 44.058594 61.042969 46.371094 83.792969 50.679688 Z M 83.792969 50.679688 " clip-rule="nonzero"/></clipPath><clipPath id="f5e18604a0"><path d="M 11 45 L 95.964844 45 L 95.964844 62.644531 L 11 62.644531 Z M 11 45 " clip-rule="nonzero"/></clipPath><clipPath id="3a25787de1"><path d="M 23.847656 39.617188 C 21.164062 40.097656 18.429688 40.632812 16.035156 42.066406 C 13.640625 43.5 11.601562 45.996094 11.269531 48.984375 C 10.933594 51.957031 12.359375 54.925781 14.417969 56.863281 C 16.476562 58.800781 19.097656 59.851562 21.710938 60.605469 C 29.710938 62.90625 38.101562 62.726562 46.367188 62.539062 C 57.300781 62.285156 68.238281 62.03125 79.152344 61.257812 C 82.5625 61.011719 86.046875 60.699219 89.191406 59.199219 C 92.335938 57.695312 95.746094 54.839844 95.765625 51.050781 C 95.855469 33.835938 46.664062 35.574219 23.847656 39.617188 Z M 23.847656 39.617188 " clip-rule="nonzero"/></clipPath><clipPath id="a33b4eef94"><path d="M 12.15625 35 L 97 35 L 97 52.6875 L 12.15625 52.6875 Z M 12.15625 35 " clip-rule="nonzero"/></clipPath><clipPath id="3b058667d8"><path d="M 84.453125 29.734375 C 87.132812 30.242188 89.859375 30.8125 92.234375 32.273438 C 94.605469 33.730469 96.609375 36.253906 96.898438 39.246094 C 97.1875 42.222656 95.71875 45.171875 93.632812 47.085938 C 91.546875 49 88.914062 50.023438 86.289062 50.746094 C 78.257812 52.953125 69.867188 52.679688 61.605469 52.390625 C 50.675781 52.011719 39.746094 51.628906 28.84375 50.726562 C 25.433594 50.445312 21.957031 50.089844 18.835938 48.554688 C 15.714844 47.015625 12.34375 44.117188 12.378906 40.328125 C 12.539062 23.117188 61.703125 25.425781 84.453125 29.734375 Z M 84.453125 29.734375 " clip-rule="nonzero"/></clipPath><mask id="9d5126155d"><g filter="url(#244ed2561d)"><rect x="-10.8" width="129.6" fill="#000000" y="-10.8" height="129.599998" fill-opacity="0.11"/></g></mask><clipPath id="ee3b848aa8"><path d="M 0.238281 0.0390625 L 12.960938 0.0390625 L 12.960938 19 L 0.238281 19 Z M 0.238281 0.0390625 " clip-rule="nonzero"/></clipPath><clipPath id="5a7cd4190c"><rect x="0" width="13" y="0" height="20"/></clipPath></defs><rect x="-10.8" width="129.6" fill="#ffffff" y="-10.8" height="129.599998" fill-opacity="1"/><rect x="-10.8" width="129.6" fill="#191919" y="-10.8" height="129.599998" fill-opacity="1"/><g clip-path="url(#51dd7e0f1e)"><path fill="#e6963f" d="M 83.835938 61.644531 C 86.515625 62.152344 89.238281 62.722656 91.613281 64.183594 C 93.988281 65.640625 95.992188 68.160156 96.28125 71.15625 C 96.570312 74.132812 95.101562 77.082031 93.015625 78.996094 C 90.929688 80.910156 88.296875 81.933594 85.667969 82.65625 C 77.636719 84.859375 69.25 84.585938 60.984375 84.300781 C 50.058594 83.921875 39.125 83.539062 28.222656 82.636719 C 24.8125 82.355469 21.335938 82 18.214844 80.460938 C 15.09375 78.921875 11.726562 76.027344 11.761719 72.238281 C 11.921875 55.023438 61.082031 57.335938 83.835938 61.644531 Z M 83.835938 61.644531 " fill-opacity="1" fill-rule="nonzero"/></g><g clip-path="url(#3b92e5f2da)"><g clip-path="url(#05daf8ec8a)"><path fill="#f9c977" d="M 11.90625 67.335938 C 12.554688 70.140625 14.582031 72.351562 16.898438 73.683594 C 19.214844 75.015625 21.820312 75.585938 24.394531 76.085938 C 37.253906 78.589844 50.332031 79.746094 63.398438 79.53125 C 69.453125 79.433594 75.550781 79.035156 81.40625 77.320312 C 87.265625 75.601562 92.90625 72.488281 97.0625 67.597656 C 99.769531 72.234375 98.855469 78.667969 95.917969 83.148438 C 92.980469 87.625 88.402344 90.441406 83.742188 92.4375 C 67.375 99.433594 48.992188 97.730469 31.976562 93.109375 C 26.277344 91.558594 20.464844 89.589844 15.996094 85.390625 C 11.527344 81.1875 8.707031 74.222656 11.90625 67.335938 Z M 11.90625 67.335938 " fill-opacity="1" fill-rule="nonzero"/></g></g><path fill="#e6963f" d="M 83.792969 50.679688 C 86.472656 51.1875 89.199219 51.757812 91.574219 53.21875 C 93.945312 54.675781 95.949219 57.199219 96.238281 60.191406 C 96.527344 63.167969 95.058594 66.117188 92.972656 68.03125 C 90.886719 69.945312 88.253906 70.96875 85.628906 71.691406 C 77.597656 73.898438 69.210938 73.625 60.945312 73.335938 C 50.015625 72.957031 39.085938 72.574219 28.183594 71.671875 C 24.773438 71.390625 21.296875 71.035156 18.175781 69.496094 C 15.054688 67.957031 11.683594 65.0625 11.71875 61.273438 C 11.878906 44.058594 61.042969 46.371094 83.792969 50.679688 Z M 83.792969 50.679688 " fill-opacity="1" fill-rule="nonzero"/><g clip-path="url(#e7cf3819a2)"><g clip-path="url(#5bd227bcab)"><path fill="#f9c977" d="M 11.867188 56.375 C 12.515625 59.175781 14.539062 61.386719 16.855469 62.722656 C 19.171875 64.050781 21.777344 64.621094 24.351562 65.125 C 37.214844 67.628906 50.292969 68.78125 63.355469 68.570312 C 69.410156 68.472656 75.511719 68.070312 81.367188 66.355469 C 87.222656 64.640625 92.863281 61.523438 97.019531 56.636719 C 99.726562 61.273438 98.8125 67.707031 95.875 72.1875 C 92.9375 76.664062 88.363281 79.480469 83.703125 81.472656 C 67.332031 88.472656 48.949219 86.769531 31.933594 82.144531 C 26.234375 80.597656 20.425781 78.628906 15.953125 74.425781 C 11.484375 70.226562 8.664062 63.257812 11.867188 56.375 Z M 11.867188 56.375 " fill-opacity="1" fill-rule="nonzero"/></g></g><path fill="#e6963f" d="M 23.847656 39.617188 C 21.164062 40.097656 18.429688 40.632812 16.035156 42.066406 C 13.640625 43.5 11.601562 45.996094 11.269531 48.984375 C 10.933594 51.957031 12.359375 54.925781 14.417969 56.863281 C 16.476562 58.800781 19.097656 59.851562 21.710938 60.605469 C 29.710938 62.90625 38.101562 62.726562 46.367188 62.539062 C 57.300781 62.285156 68.238281 62.03125 79.152344 61.257812 C 82.5625 61.011719 86.046875 60.699219 89.191406 59.199219 C 92.335938 57.695312 95.746094 54.839844 95.765625 51.050781 C 95.855469 33.835938 46.664062 35.574219 23.847656 39.617188 Z M 23.847656 39.617188 " fill-opacity="1" fill-rule="nonzero"/><g clip-path="url(#f5e18604a0)"><g clip-path="url(#3a25787de1)"><path fill="#f9c977" d="M 95.6875 46.148438 C 94.996094 48.941406 92.9375 51.132812 90.601562 52.4375 C 88.265625 53.742188 85.65625 54.28125 83.078125 54.753906 C 70.179688 57.105469 57.085938 58.105469 44.023438 57.742188 C 37.972656 57.574219 31.878906 57.105469 26.046875 55.324219 C 20.214844 53.539062 14.621094 50.359375 10.535156 45.421875 C 7.761719 50.023438 8.585938 56.46875 11.457031 60.984375 C 14.328125 65.496094 18.863281 68.363281 23.492188 70.410156 C 39.757812 77.597656 58.167969 76.109375 75.246094 71.683594 C 80.96875 70.203125 86.804688 68.300781 91.335938 64.152344 C 95.867188 60.003906 98.789062 53.066406 95.6875 46.148438 Z M 95.6875 46.148438 " fill-opacity="1" fill-rule="nonzero"/></g></g><path fill="#e6963f" d="M 84.453125 29.734375 C 87.132812 30.242188 89.859375 30.8125 92.234375 32.273438 C 94.605469 33.730469 96.609375 36.253906 96.898438 39.246094 C 97.1875 42.222656 95.71875 45.171875 93.632812 47.085938 C 91.546875 49 88.914062 50.023438 86.289062 50.746094 C 78.257812 52.953125 69.867188 52.679688 61.605469 52.390625 C 50.675781 52.011719 39.746094 51.628906 28.84375 50.726562 C 25.433594 50.445312 21.957031 50.089844 18.835938 48.554688 C 15.714844 47.015625 12.34375 44.117188 12.378906 40.328125 C 12.539062 23.117188 61.703125 25.425781 84.453125 29.734375 Z M 84.453125 29.734375 " fill-opacity="1" fill-rule="nonzero"/><g clip-path="url(#a33b4eef94)"><g clip-path="url(#3b058667d8)"><path fill="#f9c977" d="M 12.527344 35.429688 C 13.175781 38.230469 15.199219 40.441406 17.515625 41.777344 C 19.832031 43.109375 22.4375 43.675781 25.011719 44.179688 C 37.875 46.683594 50.953125 47.835938 64.015625 47.625 C 70.070312 47.527344 76.171875 47.125 82.027344 45.410156 C 87.878906 43.695312 93.523438 40.578125 97.679688 35.691406 C 100.386719 40.328125 99.472656 46.761719 96.535156 51.242188 C 93.597656 55.71875 89.023438 58.535156 84.363281 60.527344 C 67.992188 67.527344 49.609375 65.824219 32.59375 61.199219 C 26.894531 59.652344 21.085938 57.683594 16.613281 53.480469 C 12.144531 49.28125 9.324219 42.3125 12.527344 35.429688 Z M 12.527344 35.429688 " fill-opacity="1" fill-rule="nonzero"/></g></g><path fill="#944733" d="M 17.824219 31.539062 C 14.816406 32.511719 13.945312 36.851562 16.320312 39.140625 C 16.335938 39.15625 16.351562 39.175781 16.367188 39.1875 C 18.015625 40.753906 20.003906 41.859375 21.484375 43.625 C 26.296875 49.378906 23.671875 58.964844 26.378906 66.246094 C 26.96875 67.832031 28.054688 69.46875 29.582031 69.539062 C 31.320312 69.617188 32.601562 67.535156 32.691406 65.585938 C 32.777344 63.636719 32.050781 61.773438 31.578125 59.890625 C 31.105469 58.011719 30.925781 55.828125 31.953125 54.257812 C 33.550781 51.808594 37.242188 52.464844 38.992188 54.785156 C 40.742188 57.105469 41.042969 60.363281 41.125 63.402344 C 41.207031 66.441406 41.171875 69.628906 42.445312 72.3125 C 43.296875 74.101562 45.023438 75.648438 46.78125 75.1875 C 48.605469 74.707031 49.515625 72.335938 49.566406 70.234375 C 49.617188 68.128906 49.101562 66.023438 49.328125 63.9375 C 49.558594 61.847656 50.941406 59.640625 52.8125 59.757812 C 55.296875 59.910156 56.738281 63.886719 59.210938 63.621094 C 60.707031 63.460938 61.667969 61.773438 62.191406 60.191406 C 62.714844 58.613281 63.097656 56.835938 64.273438 55.789062 C 66.050781 54.207031 68.628906 55.054688 70.777344 55.871094 C 72.925781 56.691406 75.648438 57.261719 77.171875 55.375 C 78.371094 53.890625 78.28125 51.417969 79.632812 50.113281 C 81.214844 48.589844 83.875 49.765625 84.882812 51.816406 C 85.890625 53.867188 85.71875 56.367188 85.464844 58.691406 C 85.261719 60.535156 85.042969 62.523438 86.222656 64.0625 C 86.792969 64.808594 87.699219 65.160156 88.527344 64.84375 C 89.628906 64.425781 89.898438 63.15625 90.101562 62.019531 C 91.328125 55.019531 92.558594 48.019531 93.785156 41.019531 C 94.261719 38.304688 94.710938 35.359375 93.617188 32.878906 C 92.054688 29.332031 88.085938 28.234375 84.601562 27.644531 C 62.378906 23.875 39.4375 24.535156 17.824219 31.539062 Z M 17.824219 31.539062 " fill-opacity="1" fill-rule="nonzero"/><g mask="url(#9d5126155d)"><g transform="matrix(1, 0, 0, 1, 18, 29)"><g clip-path="url(#5a7cd4190c)"><g clip-path="url(#ee3b848aa8)"><path fill="#ffffff" d="M 2.476562 3.589844 C 0.300781 4.753906 -0.0546875 7.972656 1.820312 9.636719 C 1.832031 9.644531 1.847656 9.65625 1.859375 9.667969 C 3.097656 10.753906 4.574219 11.648438 5.324219 13.171875 C 5.855469 14.25 5.953125 15.511719 6.347656 16.660156 C 6.746094 17.800781 7.636719 18.929688 8.765625 18.867188 C 10.195312 18.792969 10.957031 16.8125 10.542969 15.328125 C 10.132812 13.84375 8.996094 12.761719 8 11.648438 C 7 10.539062 6.046875 9.152344 6.167969 7.609375 C 6.253906 6.46875 6.9375 5.457031 7.804688 4.792969 C 8.863281 3.980469 10.171875 3.628906 11.417969 3.296875 C 11.867188 3.179688 12.285156 2.910156 12.566406 2.507812 C 13.324219 1.417969 12.46875 0.429688 11.582031 0.265625 C 10.945312 0.148438 10.296875 0.351562 9.679688 0.5625 C 7.054688 1.464844 4.476562 2.519531 2.476562 3.589844 Z M 2.476562 3.589844 " fill-opacity="1" fill-rule="nonzero"/></g></g></g></g></svg>